<mxfile host="app.diagrams.net" modified="2021-03-01T08:21:22.646Z" agent="5.0 (Windows NT 10.0; Win64; x64) AppleWebKit/537.36 (KHTML, like Gecko) Chrome/86.0.4240.198 Safari/537.36" etag="3E10wECJz9vlEeJLudHQ" version="14.4.3" type="github">
  <diagram id="LavR25WKSgVOABaoRkKx" name="Page-1">
    <mxGraphModel dx="1422" dy="762" grid="1" gridSize="10" guides="1" tooltips="1" connect="1" arrows="1" fold="1" page="1" pageScale="1" pageWidth="827" pageHeight="1169" math="0" shadow="0">
      <root>
        <mxCell id="0" />
        <mxCell id="1" parent="0" />
        <mxCell id="cIlG313uZZB8W9nJQDF5-1" value="需求管理流程" style="swimlane;html=1;childLayout=stackLayout;startSize=20;rounded=0;shadow=0;labelBackgroundColor=none;strokeWidth=1;fontFamily=Verdana;fontSize=8;align=center;" parent="1" vertex="1">
          <mxGeometry width="800" height="730" as="geometry">
            <mxRectangle x="20" y="940" width="60" height="20" as="alternateBounds" />
          </mxGeometry>
        </mxCell>
        <mxCell id="cIlG313uZZB8W9nJQDF5-2" value="" style="group" parent="cIlG313uZZB8W9nJQDF5-1" vertex="1" connectable="0">
          <mxGeometry y="20" width="50" height="710" as="geometry" />
        </mxCell>
        <mxCell id="cIlG313uZZB8W9nJQDF5-3" value="需&lt;br&gt;求&lt;br&gt;变&lt;br&gt;更&lt;br&gt;控&lt;br&gt;制" style="shape=step;perimeter=stepPerimeter;whiteSpace=wrap;html=1;fixedSize=1;size=20;direction=south;" parent="cIlG313uZZB8W9nJQDF5-2" vertex="1">
          <mxGeometry y="530" width="50" height="180" as="geometry" />
        </mxCell>
        <mxCell id="cIlG313uZZB8W9nJQDF5-4" value="需&lt;br&gt;求&lt;br&gt;跟&lt;br&gt;踪" style="shape=step;perimeter=stepPerimeter;whiteSpace=wrap;html=1;fixedSize=1;size=20;direction=south;" parent="cIlG313uZZB8W9nJQDF5-2" vertex="1">
          <mxGeometry y="280" width="50" height="270" as="geometry" />
        </mxCell>
        <mxCell id="cIlG313uZZB8W9nJQDF5-6" value="接&lt;br&gt;收&lt;br&gt;软&lt;br&gt;件&lt;br&gt;研&lt;br&gt;制&lt;br&gt;任&lt;br&gt;务&lt;br&gt;书" style="shape=offPageConnector;whiteSpace=wrap;html=1;size=0.06666666666666667;" parent="cIlG313uZZB8W9nJQDF5-2" vertex="1">
          <mxGeometry width="50" height="300" as="geometry" />
        </mxCell>
        <mxCell id="cIlG313uZZB8W9nJQDF5-37" style="edgeStyle=orthogonalEdgeStyle;rounded=0;orthogonalLoop=1;jettySize=auto;html=1;endArrow=open;endFill=0;" parent="cIlG313uZZB8W9nJQDF5-1" source="cIlG313uZZB8W9nJQDF5-11" target="cIlG313uZZB8W9nJQDF5-17" edge="1">
          <mxGeometry relative="1" as="geometry" />
        </mxCell>
        <mxCell id="cIlG313uZZB8W9nJQDF5-38" style="edgeStyle=orthogonalEdgeStyle;rounded=0;orthogonalLoop=1;jettySize=auto;html=1;entryX=0;entryY=0.5;entryDx=0;entryDy=0;endArrow=open;endFill=0;" parent="cIlG313uZZB8W9nJQDF5-1" source="cIlG313uZZB8W9nJQDF5-12" target="cIlG313uZZB8W9nJQDF5-17" edge="1">
          <mxGeometry relative="1" as="geometry" />
        </mxCell>
        <mxCell id="cIlG313uZZB8W9nJQDF5-39" style="edgeStyle=orthogonalEdgeStyle;rounded=0;orthogonalLoop=1;jettySize=auto;html=1;entryX=0;entryY=0.5;entryDx=0;entryDy=0;endArrow=open;endFill=0;" parent="cIlG313uZZB8W9nJQDF5-1" source="cIlG313uZZB8W9nJQDF5-13" target="cIlG313uZZB8W9nJQDF5-17" edge="1">
          <mxGeometry relative="1" as="geometry" />
        </mxCell>
        <mxCell id="cIlG313uZZB8W9nJQDF5-40" style="edgeStyle=orthogonalEdgeStyle;rounded=0;orthogonalLoop=1;jettySize=auto;html=1;entryX=0;entryY=0.5;entryDx=0;entryDy=0;endArrow=open;endFill=0;" parent="cIlG313uZZB8W9nJQDF5-1" source="cIlG313uZZB8W9nJQDF5-14" target="cIlG313uZZB8W9nJQDF5-17" edge="1">
          <mxGeometry relative="1" as="geometry" />
        </mxCell>
        <mxCell id="cIlG313uZZB8W9nJQDF5-41" style="edgeStyle=orthogonalEdgeStyle;rounded=0;orthogonalLoop=1;jettySize=auto;html=1;entryX=0;entryY=0.5;entryDx=0;entryDy=0;endArrow=open;endFill=0;" parent="cIlG313uZZB8W9nJQDF5-1" source="cIlG313uZZB8W9nJQDF5-23" target="cIlG313uZZB8W9nJQDF5-33" edge="1">
          <mxGeometry relative="1" as="geometry" />
        </mxCell>
        <mxCell id="cIlG313uZZB8W9nJQDF5-42" style="edgeStyle=orthogonalEdgeStyle;rounded=0;orthogonalLoop=1;jettySize=auto;html=1;entryX=0;entryY=0.5;entryDx=0;entryDy=0;endArrow=open;endFill=0;" parent="cIlG313uZZB8W9nJQDF5-1" source="cIlG313uZZB8W9nJQDF5-23" target="cIlG313uZZB8W9nJQDF5-32" edge="1">
          <mxGeometry relative="1" as="geometry">
            <Array as="points">
              <mxPoint x="585" y="509" />
              <mxPoint x="585" y="450" />
            </Array>
          </mxGeometry>
        </mxCell>
        <mxCell id="cIlG313uZZB8W9nJQDF5-7" value="输入" style="swimlane;html=1;startSize=20;dashed=1;" parent="cIlG313uZZB8W9nJQDF5-1" vertex="1">
          <mxGeometry x="50" y="20" width="170" height="710" as="geometry" />
        </mxCell>
        <mxCell id="cIlG313uZZB8W9nJQDF5-8" value="软件研制任务书" style="shape=document;whiteSpace=wrap;html=1;boundedLbl=1;fontSize=12;" parent="cIlG313uZZB8W9nJQDF5-7" vertex="1">
          <mxGeometry x="20" y="45.63" width="120" height="38.75" as="geometry" />
        </mxCell>
        <mxCell id="cIlG313uZZB8W9nJQDF5-10" value="软件研制任务书、需求规格说明、软件设计说明、测试说明等需求相关配置项文档变更申请" style="shape=document;whiteSpace=wrap;html=1;boundedLbl=1;shadow=1;fontSize=12;" parent="cIlG313uZZB8W9nJQDF5-7" vertex="1">
          <mxGeometry x="20" y="560" width="120" height="110" as="geometry" />
        </mxCell>
        <mxCell id="cIlG313uZZB8W9nJQDF5-11" value="软件开发计划" style="shape=document;whiteSpace=wrap;html=1;boundedLbl=1;shadow=1;fontSize=12;" parent="cIlG313uZZB8W9nJQDF5-7" vertex="1">
          <mxGeometry x="20" y="300" width="120" height="41" as="geometry" />
        </mxCell>
        <mxCell id="cIlG313uZZB8W9nJQDF5-12" value="阶段工作产品" style="shape=document;whiteSpace=wrap;html=1;boundedLbl=1;shadow=1;fontSize=12;" parent="cIlG313uZZB8W9nJQDF5-7" vertex="1">
          <mxGeometry x="20" y="347" width="120" height="41" as="geometry" />
        </mxCell>
        <mxCell id="cIlG313uZZB8W9nJQDF5-13" value="需求跟踪矩阵" style="shape=document;whiteSpace=wrap;html=1;boundedLbl=1;shadow=1;fontSize=12;" parent="cIlG313uZZB8W9nJQDF5-7" vertex="1">
          <mxGeometry x="20" y="397" width="120" height="41" as="geometry" />
        </mxCell>
        <mxCell id="cIlG313uZZB8W9nJQDF5-14" value="需求状态跟踪表" style="shape=document;whiteSpace=wrap;html=1;boundedLbl=1;shadow=1;fontSize=12;" parent="cIlG313uZZB8W9nJQDF5-7" vertex="1">
          <mxGeometry x="20" y="447" width="120" height="41" as="geometry" />
        </mxCell>
        <mxCell id="cIlG313uZZB8W9nJQDF5-15" value="项目软件负责人" style="swimlane;html=1;startSize=20;dashed=1;" parent="cIlG313uZZB8W9nJQDF5-1" vertex="1">
          <mxGeometry x="220" y="20" width="200" height="710" as="geometry" />
        </mxCell>
        <mxCell id="cIlG313uZZB8W9nJQDF5-16" style="edgeStyle=elbowEdgeStyle;rounded=0;orthogonalLoop=1;jettySize=auto;html=1;entryX=0.5;entryY=0;entryDx=0;entryDy=0;fontSize=12;endArrow=open;endFill=0;" parent="cIlG313uZZB8W9nJQDF5-15" source="cIlG313uZZB8W9nJQDF5-17" target="cIlG313uZZB8W9nJQDF5-20" edge="1">
          <mxGeometry relative="1" as="geometry" />
        </mxCell>
        <mxCell id="cIlG313uZZB8W9nJQDF5-17" value="检查需求一致性" style="rounded=0;whiteSpace=wrap;html=1;shadow=1;fontSize=12;" parent="cIlG313uZZB8W9nJQDF5-15" vertex="1">
          <mxGeometry x="60" y="305.5" width="143" height="30" as="geometry" />
        </mxCell>
        <mxCell id="cIlG313uZZB8W9nJQDF5-18" style="edgeStyle=elbowEdgeStyle;rounded=0;orthogonalLoop=1;jettySize=auto;html=1;endArrow=open;endFill=0;fontSize=12;" parent="cIlG313uZZB8W9nJQDF5-15" source="cIlG313uZZB8W9nJQDF5-20" target="cIlG313uZZB8W9nJQDF5-22" edge="1">
          <mxGeometry relative="1" as="geometry" />
        </mxCell>
        <mxCell id="cIlG313uZZB8W9nJQDF5-19" style="edgeStyle=orthogonalEdgeStyle;rounded=0;sketch=0;orthogonalLoop=1;jettySize=auto;html=1;endArrow=open;endFill=0;strokeColor=#000000;exitX=1;exitY=0.5;exitDx=0;exitDy=0;" parent="cIlG313uZZB8W9nJQDF5-15" source="cIlG313uZZB8W9nJQDF5-20" edge="1">
          <mxGeometry relative="1" as="geometry">
            <mxPoint x="188.39999999999998" y="389.5" as="sourcePoint" />
            <mxPoint x="132" y="465" as="targetPoint" />
            <Array as="points">
              <mxPoint x="260" y="379.5" />
              <mxPoint x="260" y="464.5" />
              <mxPoint x="132" y="464.5" />
            </Array>
          </mxGeometry>
        </mxCell>
        <mxCell id="cIlG313uZZB8W9nJQDF5-20" value="一致？" style="rhombus;whiteSpace=wrap;html=1;shadow=1;fontSize=12;" parent="cIlG313uZZB8W9nJQDF5-15" vertex="1">
          <mxGeometry x="35" y="354.5" width="193" height="50" as="geometry" />
        </mxCell>
        <mxCell id="cIlG313uZZB8W9nJQDF5-21" style="edgeStyle=elbowEdgeStyle;rounded=0;orthogonalLoop=1;jettySize=auto;html=1;endArrow=open;endFill=0;fontSize=12;" parent="cIlG313uZZB8W9nJQDF5-15" source="cIlG313uZZB8W9nJQDF5-22" target="cIlG313uZZB8W9nJQDF5-23" edge="1">
          <mxGeometry relative="1" as="geometry" />
        </mxCell>
        <mxCell id="cIlG313uZZB8W9nJQDF5-22" value="确定来源和理由，制定、启动纠正措施" style="rounded=0;whiteSpace=wrap;html=1;shadow=1;fontSize=12;" parent="cIlG313uZZB8W9nJQDF5-15" vertex="1">
          <mxGeometry x="25" y="424.5" width="213" height="30" as="geometry" />
        </mxCell>
        <mxCell id="cIlG313uZZB8W9nJQDF5-23" value="更新需求跟踪矩阵和需求状态跟踪表" style="rounded=0;whiteSpace=wrap;html=1;shadow=1;fontSize=12;" parent="cIlG313uZZB8W9nJQDF5-15" vertex="1">
          <mxGeometry x="25" y="474.5" width="216" height="30" as="geometry" />
        </mxCell>
        <mxCell id="cIlG313uZZB8W9nJQDF5-24" value="一致" style="text;html=1;strokeColor=none;fillColor=none;align=center;verticalAlign=middle;whiteSpace=wrap;rounded=0;dashed=1;sketch=0;" parent="cIlG313uZZB8W9nJQDF5-15" vertex="1">
          <mxGeometry x="225" y="354.5" width="40" height="20" as="geometry" />
        </mxCell>
        <mxCell id="cIlG313uZZB8W9nJQDF5-25" value="不一致" style="text;html=1;strokeColor=none;fillColor=none;align=center;verticalAlign=middle;whiteSpace=wrap;rounded=0;dashed=1;sketch=0;" parent="cIlG313uZZB8W9nJQDF5-15" vertex="1">
          <mxGeometry x="141" y="404.5" width="40" height="20" as="geometry" />
        </mxCell>
        <mxCell id="cIlG313uZZB8W9nJQDF5-26" value="相关人员" style="swimlane;html=1;startSize=20;dashed=1;" parent="cIlG313uZZB8W9nJQDF5-1" vertex="1">
          <mxGeometry x="420" y="20" width="190" height="710" as="geometry" />
        </mxCell>
        <mxCell id="cIlG313uZZB8W9nJQDF5-27" value="输出" style="swimlane;html=1;startSize=20;dashed=1;" parent="cIlG313uZZB8W9nJQDF5-1" vertex="1">
          <mxGeometry x="610" y="20" width="190" height="710" as="geometry" />
        </mxCell>
        <mxCell id="cIlG313uZZB8W9nJQDF5-28" value="需求状态跟踪表" style="shape=document;whiteSpace=wrap;html=1;boundedLbl=1;shadow=1;fontSize=12;" parent="cIlG313uZZB8W9nJQDF5-27" vertex="1">
          <mxGeometry x="47" y="200" width="120" height="30" as="geometry" />
        </mxCell>
        <mxCell id="cIlG313uZZB8W9nJQDF5-31" value="变更后的需求相关配置项文档" style="shape=document;whiteSpace=wrap;html=1;boundedLbl=1;shadow=1;fontSize=12;" parent="cIlG313uZZB8W9nJQDF5-27" vertex="1">
          <mxGeometry x="42" y="594.5" width="120" height="41" as="geometry" />
        </mxCell>
        <mxCell id="cIlG313uZZB8W9nJQDF5-32" value="需求跟踪矩阵" style="shape=document;whiteSpace=wrap;html=1;boundedLbl=1;shadow=1;fontSize=12;" parent="cIlG313uZZB8W9nJQDF5-27" vertex="1">
          <mxGeometry x="42" y="415" width="120" height="30" as="geometry" />
        </mxCell>
        <mxCell id="cIlG313uZZB8W9nJQDF5-33" value="需求状态跟踪表" style="shape=document;whiteSpace=wrap;html=1;boundedLbl=1;shadow=1;fontSize=12;" parent="cIlG313uZZB8W9nJQDF5-27" vertex="1">
          <mxGeometry x="42" y="474.5" width="120" height="30" as="geometry" />
        </mxCell>
        <mxCell id="cIlG313uZZB8W9nJQDF5-35" value="软件研制任务书" style="shape=document;whiteSpace=wrap;html=1;boundedLbl=1;shadow=1;fontSize=12;" parent="cIlG313uZZB8W9nJQDF5-27" vertex="1">
          <mxGeometry x="47" y="110" width="120" height="30" as="geometry" />
        </mxCell>
        <mxCell id="cIlG313uZZB8W9nJQDF5-43" style="edgeStyle=orthogonalEdgeStyle;rounded=0;orthogonalLoop=1;jettySize=auto;html=1;entryX=0;entryY=0.5;entryDx=0;entryDy=0;endArrow=open;endFill=0;" parent="1" source="cIlG313uZZB8W9nJQDF5-48" target="cIlG313uZZB8W9nJQDF5-28" edge="1">
          <mxGeometry relative="1" as="geometry" />
        </mxCell>
        <mxCell id="cIlG313uZZB8W9nJQDF5-44" style="edgeStyle=orthogonalEdgeStyle;rounded=0;orthogonalLoop=1;jettySize=auto;html=1;entryX=0;entryY=0.5;entryDx=0;entryDy=0;endArrow=open;endFill=0;" parent="1" source="cIlG313uZZB8W9nJQDF5-48" target="cIlG313uZZB8W9nJQDF5-49" edge="1">
          <mxGeometry relative="1" as="geometry">
            <Array as="points">
              <mxPoint x="590" y="235" />
              <mxPoint x="590" y="195" />
            </Array>
          </mxGeometry>
        </mxCell>
        <mxCell id="cIlG313uZZB8W9nJQDF5-46" style="edgeStyle=orthogonalEdgeStyle;rounded=0;orthogonalLoop=1;jettySize=auto;html=1;entryX=0;entryY=0.5;entryDx=0;entryDy=0;endArrow=open;endFill=0;" parent="1" source="cIlG313uZZB8W9nJQDF5-48" target="cIlG313uZZB8W9nJQDF5-35" edge="1">
          <mxGeometry relative="1" as="geometry">
            <Array as="points">
              <mxPoint x="590" y="235" />
              <mxPoint x="590" y="145" />
            </Array>
          </mxGeometry>
        </mxCell>
        <mxCell id="cIlG313uZZB8W9nJQDF5-48" value="建立需求跟踪矩阵、需求状态表" style="rounded=0;whiteSpace=wrap;html=1;shadow=1;fontSize=12;" parent="1" vertex="1">
          <mxGeometry x="310" y="215" width="94" height="40" as="geometry" />
        </mxCell>
        <mxCell id="cIlG313uZZB8W9nJQDF5-49" value="需求跟踪矩阵" style="shape=document;whiteSpace=wrap;html=1;boundedLbl=1;shadow=1;fontSize=12;" parent="1" vertex="1">
          <mxGeometry x="657" y="180" width="120" height="30" as="geometry" />
        </mxCell>
        <mxCell id="cIlG313uZZB8W9nJQDF5-50" style="edgeStyle=orthogonalEdgeStyle;rounded=0;orthogonalLoop=1;jettySize=auto;html=1;endArrow=open;endFill=0;" parent="1" source="cIlG313uZZB8W9nJQDF5-51" target="cIlG313uZZB8W9nJQDF5-48" edge="1">
          <mxGeometry relative="1" as="geometry" />
        </mxCell>
        <mxCell id="cIlG313uZZB8W9nJQDF5-51" value="评审《软件研制任务书》，纳入功能基线" style="rounded=0;whiteSpace=wrap;html=1;shadow=1;fontSize=12;" parent="1" vertex="1">
          <mxGeometry x="255" y="150" width="300" height="30" as="geometry" />
        </mxCell>
        <mxCell id="cIlG313uZZB8W9nJQDF5-52" style="edgeStyle=orthogonalEdgeStyle;rounded=0;orthogonalLoop=1;jettySize=auto;html=1;entryX=0.5;entryY=0;entryDx=0;entryDy=0;endArrow=open;endFill=0;" parent="1" source="cIlG313uZZB8W9nJQDF5-53" target="cIlG313uZZB8W9nJQDF5-51" edge="1">
          <mxGeometry relative="1" as="geometry" />
        </mxCell>
        <mxCell id="cIlG313uZZB8W9nJQDF5-53" value="接收、理解《软件研制任务书》" style="rounded=0;whiteSpace=wrap;html=1;shadow=1;fontSize=12;" parent="1" vertex="1">
          <mxGeometry x="255" y="70" width="300" height="30" as="geometry" />
        </mxCell>
        <mxCell id="cIlG313uZZB8W9nJQDF5-59" style="edgeStyle=orthogonalEdgeStyle;rounded=0;sketch=0;orthogonalLoop=1;jettySize=auto;html=1;entryX=0;entryY=0.5;entryDx=0;entryDy=0;endArrow=open;endFill=0;strokeColor=#000000;" parent="1" source="cIlG313uZZB8W9nJQDF5-60" target="cIlG313uZZB8W9nJQDF5-31" edge="1">
          <mxGeometry relative="1" as="geometry" />
        </mxCell>
        <mxCell id="cIlG313uZZB8W9nJQDF5-60" value="需求影响分析，实施变更，重新纳入功能基线" style="rounded=0;whiteSpace=wrap;html=1;shadow=1;fontSize=12;" parent="1" vertex="1">
          <mxGeometry x="260.5" y="620" width="273" height="30" as="geometry" />
        </mxCell>
        <mxCell id="cIlG313uZZB8W9nJQDF5-61" style="edgeStyle=orthogonalEdgeStyle;rounded=0;sketch=0;orthogonalLoop=1;jettySize=auto;html=1;endArrow=open;endFill=0;strokeColor=#000000;" parent="1" source="cIlG313uZZB8W9nJQDF5-10" target="cIlG313uZZB8W9nJQDF5-60" edge="1">
          <mxGeometry relative="1" as="geometry" />
        </mxCell>
        <mxCell id="cIlG313uZZB8W9nJQDF5-62" style="edgeStyle=orthogonalEdgeStyle;rounded=0;orthogonalLoop=1;jettySize=auto;html=1;entryX=0;entryY=0.5;entryDx=0;entryDy=0;endArrow=open;endFill=0;" parent="1" source="cIlG313uZZB8W9nJQDF5-8" target="cIlG313uZZB8W9nJQDF5-53" edge="1">
          <mxGeometry relative="1" as="geometry" />
        </mxCell>
      </root>
    </mxGraphModel>
  </diagram>
</mxfile>
